# xmcd
#
# Track frame offsets:
#	150
#	15408
#	39537
#	60277
#	76694
#	92024
#	109822
#	137411
#	154201
#	168857
#	184285
#	198920
#	227942
#	242083
#
# Disc length: 3517 seconds
# Revision: 1
# Processed by: cddbd v1.5.2PL0 Copyright (c) Steve Scherf et al.
# Submitted via: dBpowerAMP V12.0
#
DISCID=a40dbb0e
DTITLE=Various Artist - Souvenir ky niem 01: Nhung bai tinh ca mua xuan
DYEAR=2003
DGENRE=Pre 75
TTITLE0=Hoang Oanh - Cau chuyen dau nam
TTITLE1=Hoang Oanh - Xuan ve
TTITLE2=Hoang Oanh - Ruoc xuan ve nha
TTITLE3=Hoang Oanh - Hoa dao nam truoc
TTITLE4=Hoang Oanh - Don xuan nay nho xuan xua
TTITLE5=Hoang Oanh - Ngay xuan tai ngo
TTITLE6=Hoang Oanh - Co lai do
TTITLE7=Hoang Oanh and Trung Chinh - Trom dao tien
TTITLE8=Hoang Oanh - Mua hoa anh dao
TTITLE9=Hoang Oanh - Mua xuan di qua
TTITLE10=Hoang Oanh - Hen uoc dem xuan
TTITLE11=Hoang Oanh - Toi chua co mua xuan
TTITLE12=Hoang Oanh - Mua xuan cua chung minh
TTITLE13=Hoang Oanh and ban hop ca Tieng To Dong - Don xuan
EXTD=
EXTT0=
EXTT1=
EXTT2=
EXTT3=
EXTT4=
EXTT5=
EXTT6=
EXTT7=
EXTT8=
EXTT9=
EXTT10=
EXTT11=
EXTT12=
EXTT13=
PLAYORDER=
